PathFileType	4	(X/Y/Z)	69_1_4_p0_0-219.trc
DataRate	CameraRate	NumFrames	NumMarkers	Units	OrigDataRate	OrigDataStartFrame	OrigNumFrames
59.0	59.0	6	27	m	59.0	137	220
Frame#	Time	RHip			RKnee			RAnkle			RBigToe			RSmallToe			RHeel			LHip			LKnee			LAnkle			LBigToe			LSmallToe			LHeel			Neck			Head			Nose			RShoulder			RElbow			RWrist			RThumb			RIndex			RPinky			LShoulder			LElbow			LWrist			LThumb			LIndex			LPinky			
		X1	Y1	Z1	X2	Y2	Z2	X3	Y3	Z3	X4	Y4	Z4	X5	Y5	Z5	X6	Y6	Z6	X7	Y7	Z7	X8	Y8	Z8	X9	Y9	Z9	X10	Y10	Z10	X11	Y11	Z11	X12	Y12	Z12	X13	Y13	Z13	X14	Y14	Z14	X15	Y15	Z15	X16	Y16	Z16	X17	Y17	Z17	X18	Y18	Z18	X19	Y19	Z19	X20	Y20	Z20	X21	Y21	Z21	X22	Y22	Z22	X23	Y23	Z23	X24	Y24	Z24	X25	Y25	Z25	X26	Y26	Z26	X27	Y27	Z27	
137	2.3220338983050848	0.2799754733415757	0.5282686988999469	0.4839931425359053	0.24923744373476447	0.5518016223137961	0.9190047563840317	0.22544823816271306	0.5714200784770472	1.308706059119929	0.24926711203738341	0.44537609751322166	1.3424004916916983	0.31671997141576047	0.4683713415764478	1.3243170190068714	0.17916906847916333	0.6559004739365765	1.3885531798237132	0.09772713638886416	0.4991684338515691	0.48522164945948404	0.04225247329143	0.5267227488178937	0.9211198842200264	0.030542250342374625	0.561410726705535	1.3235077821367922	0.11051647111083791	0.3764857101297301	1.306737898168734	0.03942989918165468	0.41236342749509847	1.323638027638306	0.03402777284927606	0.5815522189580095	1.369823041632375	0.21368585769691417	0.5109403381003441	-0.0015138944552813285	0.2488021156473008	0.4568673335935751	-0.25283050970292614	0.2528799684480905	0.3850635677837806	-0.11324336084255698	0.3499762853136498	0.5371771196301054	0.07346228463898974	0.3656087048181882	0.5397105180666396	0.3246134101715979	0.3151513576239671	0.3762923000522016	0.494391373357978	0.23806019883654192	0.2980788122480354	0.5643782572359706	0.22730050981481073	0.31909377261977584	0.6107766079097064	0.23282259173283262	0.3655129964192675	0.6301323539600263	0.06604882680115218	0.45760928960776254	0.05513300254979848	0.06168954765747872	0.41018913208644286	0.2955645770911767	0.15208648652478257	0.3154033120065907	0.4666292175944271	0.23181599851198081	0.27409151436605617	0.5335623679339123	0.23250769205650298	0.26624402401946196	0.5696458104557646	0.21500687124168907	0.2728656665800171	0.5911579486898294
138	2.3389830508474576	0.28036943220552035	0.5275510249839235	0.4877287445202079	0.25340225443904735	0.5540110754343479	0.9192007754560241	0.22620023268208228	0.5699558190886117	1.3125148577563657	0.2595302508694567	0.42053183915345543	1.3268855459199698	0.31555450446626954	0.4684848001341276	1.32854568459087	0.17796109249765765	0.6698011795684171	1.3960005443318775	0.08920489100765722	0.5095342016995509	0.49669288186106875	0.04301657057997441	0.5235932286624069	0.9190133318165165	0.03129872481073647	0.5600613671992679	1.327339965698671	0.1113308322664865	0.3635747423307663	1.3036959314973022	0.0398128421997884	0.4117797221495537	1.3232393969508802	0.03404705368831145	0.5815446029560748	1.3700033009351475	0.21365246477500044	0.5109921829339958	-0.0016110969350182746	0.24886403306498167	0.45695278884984664	-0.2529635924651822	0.25314129320269957	0.3856306112823605	-0.11662543739098463	0.3499499248663418	0.5370979097382805	0.07341805798879876	0.3658667233355702	0.5385265872734504	0.32004305235230934	0.3184768988453498	0.3922284203127691	0.5017960113476054	0.2489479025242009	0.3024014191160919	0.568521852664337	0.22784899382350648	0.34725809503423366	0.6231282094582383	0.24344717513716208	0.38614893004099343	0.6397121502266141	0.06601381573058997	0.457748829595631	0.05514241321884063	0.05245892249322935	0.4210817727478957	0.298208881685646	0.14032903420573814	0.3224677585375985	0.46927594936805306	0.23176513571610927	0.2749831004453079	0.5330070984379693	0.2287221516481244	0.2661053175008189	0.5668213174629556	0.19904345877908705	0.2791055787931089	0.5912094105850427
139	2.3559322033898304	0.26808543533709195	0.5363176568855085	0.4909001002341636	0.25042764218873165	0.53786184625105	0.913430732503128	0.22612427964664833	0.5699729558834434	1.3125861884843462	0.26015450708483323	0.4191069479578133	1.3308005064689354	0.3162754421639304	0.455590642230732	1.3218088985062297	0.17059865853955303	0.690022959913998	1.4079091354541755	0.08513125673900028	0.505443993774904	0.4873326261119279	0.04241949169639368	0.5245924637739388	0.9155180832563808	0.028833254137926517	0.5560655261904944	1.3302638229311676	0.11117825035222913	0.363355754779274	1.3039115030156958	0.03943062255037884	0.411722258488078	1.323881499019448	0.03235600825083523	0.5819942425513449	1.3755356312539548	0.2137073512189659	0.5110235170509098	-0.0016908813543208118	0.24907593165036668	0.45696498584666684	-0.2530459560655609	0.25682198245065113	0.38803489387871754	-0.1135943395841516	0.35001772296288675	0.5369634050742575	0.07352662022345752	0.36910341171405997	0.5417003462928344	0.320307160905225	0.321907035619906	0.39591508459733865	0.5023186156557408	0.27111937497299243	0.2949464315866822	0.563445736942143	0.2515017407948654	0.31614902946387	0.6103521617737436	0.26089521090891693	0.3788596675488787	0.6391827153724422	0.06596583259470536	0.45780029787367676	0.055122773553062186	0.05198560299875362	0.4214228183123442	0.29462651848920157	0.13620223965903547	0.31951026712037733	0.4725227248316807	0.22747376421905063	0.27115288443981395	0.5407928248496219	0.21542149490838888	0.24730851764058764	0.5701310461585505	0.1716499242416838	0.28095254152302807	0.5985532568089275
140	2.3728813559322033	0.2725208063269614	0.5256025552004188	0.47561688565213683	0.248346947967051	0.5515700360484882	0.9232185839450976	0.2261423366380836	0.5700242774876103	1.3126195800777978	0.2588871728762995	0.43222016364456145	1.33803267996285	0.31599669992565554	0.4673627057182885	1.3324547873090336	0.1687464094368953	0.670585449844654	1.3980282695788373	0.08111147253198159	0.5037196881673072	0.47934601127757315	0.0424130524939286	0.5250011851778861	0.9159949225492304	0.027480208418509046	0.5580630160320965	1.341389550229329	0.111090225961832	0.36362765936507446	1.304076980333713	0.03932607865765198	0.41195784920626144	1.324095085239738	0.029714817597795606	0.5790769834501868	1.3839574590870103	0.21373735723875412	0.5109596965183517	-0.001778887948969613	0.2563665440896584	0.4579128886105942	-0.253059120042887	0.2646281128241593	0.3785159334895712	-0.11457740898519786	0.350043483442287	0.5370596945131905	0.0734262126876637	0.36997902989944387	0.5421455223154747	0.31649198598286454	0.3327854703428008	0.3984519540633439	0.49798905988792164	0.2807168262359764	0.29436497606176093	0.57062289748119	0.2805894912485746	0.2991483187542764	0.6033065090037838	0.2918943528397441	0.3508068909662009	0.6202478791672584	0.06596093509992876	0.457636506783301	0.05511456133648086	0.05193292749483474	0.42034510120945473	0.29465850122213116	0.13610325915128474	0.3188712316995625	0.47673191093377026	0.21284360002829153	0.2748039302097387	0.545840537668658	0.19841536734073828	0.24924386209713295	0.5840434416721458	0.14178163422054074	0.30689780285444024	0.6120609853941796
141	2.389830508474576	0.2815105336293162	0.5146384275736121	0.4641401575997843	0.2472452361389412	0.5516516430931809	0.9288577659038987	0.2250736871965721	0.5838525963040688	1.3197794042428466	0.25884581850415056	0.43037278551775837	1.3327867497918118	0.30863705364623656	0.4792556670161814	1.3359148577285833	0.17800036582983794	0.6672941242883068	1.3905660859344078	0.10099093437518836	0.48007642003197326	0.459433333702314	0.041966887228035286	0.5221540451038686	0.918328537010605	0.028669087994471796	0.5561152126717768	1.3302628676655528	0.10763067403883854	0.36059871511644515	1.3029983215691119	0.03933918926695235	0.4119742454109935	1.3239250935815936	0.03113366746693101	0.5771098703278209	1.3729226307128133	0.21378545853369663	0.5109699811482606	-0.0018117606589829322	0.2563537410186567	0.45812586081266354	-0.25315664182905334	0.264859190837642	0.3791800311291626	-0.11787364424014052	0.3532698745439589	0.539341706555198	0.07349558978162615	0.36547962056731137	0.5394305737450341	0.3199938242673722	0.3367681113789834	0.40296559539517407	0.5107650122467537	0.28881912795270714	0.29969128738664186	0.5822042837962915	0.30544188968823016	0.3010935734611772	0.616017311263581	0.3170552655451374	0.3344909601955396	0.622092989071134	0.06631825430542142	0.4564292422085531	0.051686066016659024	0.05309927187149288	0.40871779042520356	0.292091107419351	0.12733777507833563	0.3283866020415519	0.4799874309071641	0.19427966939603736	0.26673019806806125	0.548806511904098	0.17749665154017935	0.2540452492472547	0.5944812523829205	0.1300721614845332	0.30143095407730347	0.6164294938408433
142	2.406779661016949	0.28102706240037245	0.5152550829592983	0.4602397335960838	0.24726569682441604	0.5513019092816844	0.9291372080609382	0.22641870257553068	0.5697921045336827	1.312587174869034	0.2626737317354589	0.4356940644908201	1.338968590687935	0.3203098663358483	0.47128981773530826	1.3248669530797998	0.1813846043841241	0.6717812740623655	1.3923633393667356	0.09869560108918862	0.4632265319638583	0.4466871685194346	0.04270600372806397	0.5242252682379482	0.919480024052113	0.02739346791668519	0.5561896501570075	1.3350065573642549	0.10597763290914358	0.374748819364933	1.3153490664154583	0.03938189991787381	0.4120051313622702	1.323934471212548	0.029747770165913213	0.5773562120243527	1.3778617347998272	0.2138436753226431	0.5108903069773295	-0.001941522541684091	0.25662649787836095	0.45723756215890954	-0.25668688614015434	0.2686411308359099	0.38083138990700355	-0.12122628494028737	0.35333883538823735	0.5393380488676841	0.07351326443457609	0.36852195219722117	0.5535600053021129	0.3187968397300001	0.340302065044811	0.40599123553295197	0.5115222352260934	0.30678969469970513	0.31006888901941027	0.5872168378968219	0.3193969393338083	0.30867637190792346	0.6237846433871935	0.3141263684409367	0.3597004148613173	0.6405159943322831	0.06623105928861124	0.456527600745487	0.051610223457652774	0.050944845558910413	0.40520639666828495	0.29116604216404196	0.12518462398154195	0.31400280358759447	0.4765117647584772	0.18107253996077702	0.27447035085008625	0.5552674378801685	0.1530036787312898	0.27128571260662326	0.6034385910906817	0.11887983343789407	0.29614287110435855	0.6157069956571335
